<svg width="220" height="160" viewBox="0 0 220 160" fill="none" xmlns="http://www.w3.org/2000/svg">
<g filter="url(#filter0_f_17_100)">
<path d="M25 94.0674L4 -6.90192L207 -11.1985L197.5 84.4001L182.5 -0.457067L168 89.7709L151 2.76536L131.5 91.9191L116.5 -6.90192L101.5 91.9191L83.5 -0.457067L67.5 91.9191L49 -6.90192L25 94.0674Z" fill="white"/>
<path d="M25 94.0674L4 -6.90192L207 -11.1985L197.5 84.4001L182.5 -0.457067L168 89.7709L151 2.76536L131.5 91.9191L116.5 -6.90192L101.5 91.9191L83.5 -0.457067L67.5 91.9191L49 -6.90192L25 94.0674Z" stroke="#FF67B6" stroke-width="0.3"/>
</g>
<defs>
<filter id="filter0_f_17_100" x="-96.1836" y="-111.352" width="403.35" height="305.454" filterUnits="userSpaceOnUse" color-interpolation-filters="sRGB">
<feFlood flood-opacity="0" result="BackgroundImageFix"/>
<feBlend mode="normal" in="SourceGraphic" in2="BackgroundImageFix" result="shape"/>
<feGaussianBlur stdDeviation="50" result="effect1_foregroundBlur_17_100"/>
</filter>
</defs>
</svg>
